{"title":"The.Confession.2011.DvDRip.XviD.Feel-Free","uid":7119288,"size":707078661,"categoryP":"video","categoryS":"movies","magnet":"?xt=urn:btih:9c61e79c67f2bcaed0652d37bd438ea6c9e7f659&amp;dn=The.Confession.2011.DvDRip.XviD.Feel-Free&amp;tr=udp%3A%2F%2Ftracker.openbittorrent.com%3A80&amp;tr=udp%3A%2F%2Fopen.demonii.com%3A1337&amp;tr=udp%3A%2F%2Ftracker.coppersurfer.tk%3A6969&amp;tr=udp%3A%2F%2Fexodus.desync.com%3A6969","seeders":1,"leechers":0,"uploader":".BONE.","files":8,"time":1332311843,"description":"Genre:Action | Crime | Drama\nLanguage:English &lt;a href=&quot;\nhttp://www.imdb.com/title/tt1809362/&quot; rel=&quot;nofollow&quot; target=&quot;_NEW&quot;&gt;\nhttp://www.imdb.com/title/tt1809362/&lt;/a&gt;\nSource:DVD Thanks!\nEncoder:Tony\n\nFormat/Info : Audio Video Interleave\nFile size : 672 MiB\nDuration : 1h 2mn\nOverall bit rate : 1 499 Kbps\n\nVideo\nID : 0\nFormat : MPEG-4 Visual\nFormat profile : Advanced Simple@L5\nFormat settings, BVOP : 1\nFormat settings, QPel : No\nFormat settings, GMC : No warppoints\nFormat settings, Matrix : Default (H.263)\nCodec ID : XVID\nCodec ID/Hint : XviD\nDuration : 1h 2mn\nBit rate : 1 266 Kbps\nWidth : 640 pixels\nHeight : 360 pixels\nDisplay aspect ratio : 16:9\nFrame rate : 23.976 fps\nColor space : YUV\nChroma subsampling : 4:2:0\nBit depth : 8 bits\nScan type : Progressive\nCompression mode : Lossy\nBits/(Pixel*Frame) : 0.229\nStream size : 567 MiB (84%)\nWriting library : XviD 1.2.1 (UTC 2008-12-04)\n\nAudio\nID : 1\nFormat : AC-3\nFormat/Info : Audio Coding 3\nMode extension : CM (complete main)\nCodec ID : 2000\nDuration : 1h 2mn\nBit rate mode : Constant\nBit rate : 224 Kbps\nChannel(s) : 2 channels\nChannel positions : Front: L R\nSampling rate : 48.0 KHz\nBit depth : 16 bits\nCompression mode : Lossy\nStream size : 100 MiB (15%)\nAlignment : Aligned on interleaves\nInterleave, duration : 42 ms (1.00 video frame)\nInterleave, preload duration : 512 ms\n\n\nPlot:\nA unique story of redemption and an exploration of good and evil featuring a hit man and a priest.","torrent":{"xt":"urn:btih:9c61e79c67f2bcaed0652d37bd438ea6c9e7f659","amp;dn":"The.Confession.2011.DvDRip.XviD.Feel-Free","amp;tr":["udp%3A%2F%2Ftracker.openbittorrent.com%3A80","udp%3A%2F%2Fopen.demonii.com%3A1337","udp%3A%2F%2Ftracker.coppersurfer.tk%3A6969","udp%3A%2F%2Fexodus.desync.com%3A6969"],"infoHash":"9c61e79c67f2bcaed0652d37bd438ea6c9e7f659","infoHashBuffer":{"type":"Buffer","data":[156,97,231,156,103,242,188,174,208,101,45,55,189,67,142,166,201,231,246,89]},"announce":[],"urlList":[]}}